<?xml version="1.0" encoding="utf-8"?>
<!-- Generator: Adobe Illustrator 15.0.2, SVG Export Plug-In . SVG Version: 6.00 Build 0)  -->
<!DOCTYPE svg PUBLIC "-//W3C//DTD SVG 1.1//EN" "http://www.w3.org/Graphics/SVG/1.1/DTD/svg11.dtd">
<svg version="1.1" id="Ebene_1" xmlns="http://www.w3.org/2000/svg" xmlns:xlink="http://www.w3.org/1999/xlink" x="0px" y="0px"
	 width="357.868px" height="357.74px" viewBox="10.402 6.815 357.868 357.74" enable-background="new 10.402 6.815 357.868 357.74"
	 xml:space="preserve">
<path fill="#282828" d="M34.432,92.934c5.183-9.369,11.851-17.791,18.54-26.093c7.799-7.63,14.913-16.086,23.836-22.45
	C105.326,21.39,141.487,8.534,177.981,6.815c0.227,41.309,0.75,82.618,0.94,123.934c6.668,0.432,13.356,0.234,20.046,0.319
	c-0.269-41.366-0.699-82.724-0.904-124.097c29.98,1.853,59.418,11.391,84.812,27.436c18.497,11.809,35.546,26.297,48.373,44.229
	c21.806,28.143,34.627,62.968,36.982,98.458c-41.374-0.178-82.74-0.758-124.113-0.905c-0.128,6.66-0.015,13.322,0.198,19.981
	c41.315,0.305,82.633,0.722,123.955,0.893c-1.675,39.181-16.7,77.81-42.604,107.316c-16.355,18.646-36.508,33.99-59.085,44.293
	c-20.593,9.531-43.099,14.913-65.761,15.883c-0.34-41.311-0.766-82.619-0.92-123.942c-6.683-0.134-13.364-0.169-20.053-0.184
	c0.239,41.322,0.537,82.646,0.946,123.97c-43.65-2.438-85.948-21.87-116.729-52.808c-31.261-30.766-50.834-73.305-53.302-117.152
	c41.337,0.17,82.668,0.602,123.998,0.835c-0.176-6.684,0.12-13.386-0.367-20.068c-41.331-0.19-82.654-0.644-123.992-0.955
	C12.101,145.797,19.815,117.506,34.432,92.934z"/>
<path fill="rgb(209,191,142)" d="M43.002,93.626c20.803-34.054,54.454-59.969,92.651-71.509c11.265-3.104,22.699-6.478,34.472-6.556
	c0.467,30.716,0.729,61.455,0.827,92.186c-0.07,6.844,0.531,13.696,0.007,20.527c0.121,2.623-3.125,2.376-4.928,2.438
	c-7.998-0.317-16.009,0.354-23.993-0.346c-0.509-21.438-0.453-42.893-0.544-64.339c0.057-3.945-0.077-7.899-0.558-11.816
	c-14.645,5-28.059,13.04-40.291,22.401c-12.848,11.194-24.473,23.992-32.831,38.927c-3.748,6.943-7.686,13.951-9.341,21.743
	c22.189,0.99,44.399,0.559,66.603,0.983c16.263-0.127,32.52,0.487,48.791,0.382c8.266,0.177,16.554-0.063,24.818,0.297
	c0.551,9.546,0.742,19.141,0.227,28.695c-2.213,0.147-4.439,0.296-6.653,0.332c-48.069-0.255-96.138-0.849-144.208-0.961
	c-9.574-0.425-19.163,0.184-28.729-0.517c-0.297-5.516,0.658-10.981,1.853-16.348C25.069,130.241,32.345,110.916,43.002,93.626z"/>
<path fill="rgb(209,191,142)" d="M68.974,129.993c7.127-14.807,16.433-28.708,28.334-40.114c10.684-10.075,23.094-18.215,36.345-24.508
	c0.326,21.736,0.432,43.479,0.602,65.216C112.497,130.241,90.724,130.517,68.974,129.993z"/>
<path fill="rgb(209,191,142)" d="M20.296,211.692c-0.594-3.21-0.778-6.479-0.834-9.73c23.419,0.426,46.839,0.623,70.258,0.638
	c9.906-0.247,19.799,0.764,29.698,0.409c4.907,0.058,9.907-0.571,14.736,0.523c1.075,2.064,0.707,4.497,0.792,6.746
	c-0.254,7.198,0.169,14.396-0.219,21.588c-16.879,0.785-33.786-0.128-50.664,0.077c-8.302,0.17-16.681-1.039-24.912,0.573
	c5.742,17.96,16.822,33.679,29.048,47.813c5.939,6.887,13.471,12.057,20.492,17.734c10.38,7.806,22.02,13.901,34.203,18.363
	c0.87-8.253,0.262-16.554,0.375-24.826c-0.523-32.527-0.474-65.063-0.792-97.581c-0.169-6.081-0.233-12.155,0.057-18.229
	c9.532-0.692,19.156-0.587,28.681,0.254c0.834,8.557,0.29,17.162,0.46,25.746c0.474,44.781,0.75,89.563,1.018,134.351
	c-0.014,6.563,0.445,13.116-0.056,19.672c-30.746-2.998-60.253-15.337-85.001-33.665c-9.504-6.406-17.112-15.075-25.215-23.08
	c-5.098-4.957-9.001-10.925-13.124-16.674C34.523,261.374,24.652,236.992,20.296,211.692z"/>
<path fill="rgb(209,191,142)" d="M206.859,148.053c-0.438-44.097-0.56-88.198-1.067-132.293c14.036,0.714,27.719,4.667,40.878,9.411
	c21.596,7.75,41.16,20.443,58.188,35.702c30.172,27.979,50.184,66.885,54.588,107.862c-6.93,0.707-13.88,0.233-20.824,0.332
	c-29.231-0.197-58.456-0.488-87.681-0.636c-2.205-0.058-4.392-0.233-6.59-0.396c-0.461-9.511-0.906-19.093-0.078-28.589
	c10.465-0.58,20.943,0.141,31.416,0.034c14.758-0.176,29.522,0.574,44.271,0.178c-3.351-11.823-9.871-22.444-16.595-32.619
	c-6.726-10.273-15.911-18.583-24.679-27.067c-12.664-10.869-27.353-19.645-43.227-24.885c-0.063,38.998,0.559,78.002,0.729,117.005
	c-0.133,7.898,0.383,15.825-0.205,23.708c-9.539,0.106-19.142,0.616-28.637-0.438C206.782,179.596,207.171,163.821,206.859,148.053z
	"/>
<path fill="rgb(209,191,142)" d="M135.491,304.995c-28.617-13.103-52.326-36.826-65.429-65.442c21.666-0.015,43.325,0.402,64.997,0.48
	C135.117,261.685,135.647,283.344,135.491,304.995z"/>
<path fill="rgb(209,191,142)" d="M243.757,131.394c-0.19-21.716-0.495-43.432-0.53-65.146c10.076,4.928,19.672,10.848,28.469,17.833
	c6.525,5.819,12.721,12.015,18.604,18.491c7.34,8.966,13.406,18.908,18.563,29.281C287.158,131.804,265.458,131.612,243.757,131.394
	z"/>
<path fill="rgb(209,191,142)" d="M179.41,195.754c0.063-6.71-0.057-13.421-0.113-20.138c6.633,0.057,13.271,0.092,19.898,0.127
	c0.312,6.718,0.213,13.449,0.205,20.174C192.73,195.811,186.07,195.626,179.41,195.754z"/>
<path fill="rgb(209,191,142)" d="M180.139,232.233c-0.8-9.496-0.758-19.07-0.213-28.581c9.766-0.347,19.537-0.432,29.303-0.014
	c14.375,0.332,28.752,0.112,43.127,0.36c16.271,0.431,32.541-0.284,48.805,0.466c19.559,0.354,39.145-0.312,58.683,0.8
	c-2.044,20.031-7.56,39.703-16.221,57.884c-12.579,25.505-31.416,48.119-55.147,63.943c-22.353,15.704-48.705,25.371-75.76,28.778
	c-1.329,0.058-2.85,0.262-3.924-0.714c-0.389-1.591-0.41-3.238-0.438-4.864c0.076-12.977-0.07-25.966-0.383-38.947
	c0.071-18.838-0.128-37.676-0.297-56.513c-0.163-4.729-0.17-9.476,0.452-14.171c9.383,0.29,18.788-0.247,28.149,0.518
	c0.765,5.938,0.595,11.922,0.602,17.896c0.154,19.232,0.148,38.473,0.58,57.698c2.906-0.572,5.806-1.308,8.5-2.56
	c11.666-5.459,23.164-11.653,32.873-20.243c4.115-3.776,8.738-7.029,12.331-11.356c2.391-2.885,4.907-5.656,7.39-8.464
	c5.53-6.224,9.646-13.507,13.797-20.669c3.272-6.258,6.787-12.559,8.088-19.587c-14.433-0.743-28.885-0.263-43.33-0.58
	c-26.164-0.354-52.334-0.262-78.496-0.572C192.441,232.742,186.275,232.884,180.139,232.233z"/>
<path fill="rgb(209,191,142)" d="M245.198,305.851c-0.523-21.639-0.402-43.282-0.679-64.928c21.666,0.07,43.324,0.39,64.982,0.538
	C296.889,269.83,273.469,293.081,245.198,305.851z"/>
</svg>
